<mxfile host="65bd71144e">
    <diagram id="Ms2f--9ogLVKOuNqTjOE" name="Page-1">
        <mxGraphModel dx="976" dy="560" grid="1" gridSize="10" guides="1" tooltips="1" connect="1" arrows="1" fold="1" page="1" pageScale="1" pageWidth="827" pageHeight="1169" math="0" shadow="0">
            <root>
                <mxCell id="0"/>
                <mxCell id="1" parent="0"/>
                <mxCell id="57" style="edgeStyle=none;html=1;entryX=0;entryY=0.5;entryDx=0;entryDy=0;exitX=1;exitY=0.5;exitDx=0;exitDy=0;" parent="1" source="4" target="25" edge="1">
                    <mxGeometry relative="1" as="geometry">
                        <Array as="points">
                            <mxPoint x="300" y="302"/>
                        </Array>
                    </mxGeometry>
                </mxCell>
                <mxCell id="61" style="edgeStyle=none;html=1;exitX=1;exitY=0.5;exitDx=0;exitDy=0;" parent="1" source="4" edge="1">
                    <mxGeometry relative="1" as="geometry">
                        <mxPoint x="350" y="500" as="targetPoint"/>
                        <Array as="points">
                            <mxPoint x="300" y="302"/>
                            <mxPoint x="300" y="500"/>
                        </Array>
                    </mxGeometry>
                </mxCell>
                <mxCell id="62" style="edgeStyle=none;html=1;exitX=1;exitY=0.5;exitDx=0;exitDy=0;entryX=0;entryY=0.5;entryDx=0;entryDy=0;" parent="1" source="4" target="5" edge="1">
                    <mxGeometry relative="1" as="geometry">
                        <Array as="points">
                            <mxPoint x="300" y="302"/>
                            <mxPoint x="300" y="140"/>
                        </Array>
                    </mxGeometry>
                </mxCell>
                <mxCell id="4" value="Informante" style="shape=process;whiteSpace=wrap;html=1;backgroundOutline=1;fillColor=#d5e8d4;strokeColor=#82b366;" parent="1" vertex="1">
                    <mxGeometry x="120" y="272" width="130" height="60" as="geometry"/>
                </mxCell>
                <mxCell id="5" value="Sociedad &lt;br&gt;nacional" style="rounded=0;whiteSpace=wrap;html=1;fillColor=#dae8fc;strokeColor=#6c8ebf;" parent="1" vertex="1">
                    <mxGeometry x="350" y="110" width="120" height="60" as="geometry"/>
                </mxCell>
                <mxCell id="6" value="&lt;span&gt;Sociedad&lt;/span&gt;&lt;br&gt;&lt;span&gt;nacional&lt;/span&gt;" style="rounded=0;whiteSpace=wrap;html=1;fillColor=#dae8fc;strokeColor=#6c8ebf;" parent="1" vertex="1">
                    <mxGeometry x="554" y="110" width="120" height="60" as="geometry"/>
                </mxCell>
                <mxCell id="22" value="" style="group" parent="1" vertex="1" connectable="0">
                    <mxGeometry x="364" y="190" width="100" height="60" as="geometry"/>
                </mxCell>
                <mxCell id="16" value="" style="shape=actor;whiteSpace=wrap;html=1;fillColor=#fff2cc;strokeColor=#d6b656;" parent="22" vertex="1">
                    <mxGeometry x="30" width="40" height="60" as="geometry"/>
                </mxCell>
                <mxCell id="17" value="" style="shape=actor;whiteSpace=wrap;html=1;fillColor=#e1d5e7;strokeColor=#9673a6;" parent="22" vertex="1">
                    <mxGeometry width="40" height="60" as="geometry"/>
                </mxCell>
                <mxCell id="18" value="" style="shape=actor;whiteSpace=wrap;html=1;fillColor=#fff2cc;strokeColor=#d6b656;" parent="22" vertex="1">
                    <mxGeometry x="60" width="40" height="60" as="geometry"/>
                </mxCell>
                <mxCell id="23" value="" style="group" parent="1" vertex="1" connectable="0">
                    <mxGeometry x="564" y="190" width="100" height="60" as="geometry"/>
                </mxCell>
                <mxCell id="3" value="" style="shape=actor;whiteSpace=wrap;html=1;fillColor=#fff2cc;strokeColor=#d6b656;" parent="23" vertex="1">
                    <mxGeometry x="30" width="40" height="60" as="geometry"/>
                </mxCell>
                <mxCell id="12" value="" style="shape=actor;whiteSpace=wrap;html=1;fillColor=#e1d5e7;strokeColor=#9673a6;" parent="23" vertex="1">
                    <mxGeometry width="40" height="60" as="geometry"/>
                </mxCell>
                <mxCell id="15" value="" style="shape=actor;whiteSpace=wrap;html=1;fillColor=#fff2cc;strokeColor=#d6b656;" parent="23" vertex="1">
                    <mxGeometry x="60" width="40" height="60" as="geometry"/>
                </mxCell>
                <mxCell id="24" value="" style="group" parent="1" vertex="1" connectable="0">
                    <mxGeometry x="364" y="470" width="100" height="60" as="geometry"/>
                </mxCell>
                <mxCell id="19" value="" style="shape=actor;whiteSpace=wrap;html=1;fillColor=#e1d5e7;strokeColor=#9673a6;" parent="24" vertex="1">
                    <mxGeometry x="30" width="40" height="60" as="geometry"/>
                </mxCell>
                <mxCell id="20" value="" style="shape=actor;whiteSpace=wrap;html=1;fillColor=#fff2cc;strokeColor=#d6b656;" parent="24" vertex="1">
                    <mxGeometry width="40" height="60" as="geometry"/>
                </mxCell>
                <mxCell id="21" value="" style="shape=actor;whiteSpace=wrap;html=1;fillColor=#fff2cc;strokeColor=#d6b656;" parent="24" vertex="1">
                    <mxGeometry x="60" width="40" height="60" as="geometry"/>
                </mxCell>
                <mxCell id="63" style="edgeStyle=none;html=1;exitX=1;exitY=0.5;exitDx=0;exitDy=0;entryX=0;entryY=0.5;entryDx=0;entryDy=0;dashed=1;" parent="1" source="25" target="39" edge="1">
                    <mxGeometry relative="1" as="geometry"/>
                </mxCell>
                <mxCell id="25" value="Sociedad &lt;br&gt;nacional" style="rounded=0;whiteSpace=wrap;html=1;fillColor=#dae8fc;strokeColor=#6c8ebf;" parent="1" vertex="1">
                    <mxGeometry x="350" y="272" width="120" height="60" as="geometry"/>
                </mxCell>
                <mxCell id="26" value="&lt;span&gt;Sociedad&lt;/span&gt;&lt;br&gt;extranjera" style="rounded=0;whiteSpace=wrap;html=1;fillColor=#ffe6cc;strokeColor=#d79b00;" parent="1" vertex="1">
                    <mxGeometry x="760" y="272" width="120" height="60" as="geometry"/>
                </mxCell>
                <mxCell id="27" value="" style="group" parent="1" vertex="1" connectable="0">
                    <mxGeometry x="364" y="350" width="100" height="60" as="geometry"/>
                </mxCell>
                <mxCell id="28" value="" style="shape=actor;whiteSpace=wrap;html=1;fillColor=#e1d5e7;strokeColor=#9673a6;" parent="27" vertex="1">
                    <mxGeometry x="30" width="40" height="60" as="geometry"/>
                </mxCell>
                <mxCell id="29" value="" style="shape=actor;whiteSpace=wrap;html=1;fillColor=#e1d5e7;strokeColor=#9673a6;" parent="27" vertex="1">
                    <mxGeometry width="40" height="60" as="geometry"/>
                </mxCell>
                <mxCell id="30" value="" style="shape=actor;whiteSpace=wrap;html=1;fillColor=#fff2cc;strokeColor=#d6b656;" parent="27" vertex="1">
                    <mxGeometry x="60" width="40" height="60" as="geometry"/>
                </mxCell>
                <mxCell id="35" value="" style="group" parent="1" vertex="1" connectable="0">
                    <mxGeometry x="780" y="350" width="100" height="60" as="geometry"/>
                </mxCell>
                <mxCell id="36" value="" style="shape=actor;whiteSpace=wrap;html=1;fillColor=#e1d5e7;strokeColor=#9673a6;" parent="35" vertex="1">
                    <mxGeometry x="30" width="40" height="60" as="geometry"/>
                </mxCell>
                <mxCell id="37" value="" style="shape=actor;whiteSpace=wrap;html=1;fillColor=#e1d5e7;strokeColor=#9673a6;" parent="35" vertex="1">
                    <mxGeometry width="40" height="60" as="geometry"/>
                </mxCell>
                <mxCell id="38" value="" style="shape=actor;whiteSpace=wrap;html=1;fillColor=#fff2cc;strokeColor=#d6b656;" parent="35" vertex="1">
                    <mxGeometry x="60" width="40" height="60" as="geometry"/>
                </mxCell>
                <mxCell id="39" value="Sociedad &lt;br&gt;nacional" style="rounded=0;whiteSpace=wrap;html=1;fillColor=#dae8fc;strokeColor=#6c8ebf;" parent="1" vertex="1">
                    <mxGeometry x="554" y="272" width="120" height="60" as="geometry"/>
                </mxCell>
                <mxCell id="40" value="" style="group" parent="1" vertex="1" connectable="0">
                    <mxGeometry x="568" y="350" width="100" height="60" as="geometry"/>
                </mxCell>
                <mxCell id="41" value="" style="shape=actor;whiteSpace=wrap;html=1;fillColor=#e1d5e7;strokeColor=#9673a6;" parent="40" vertex="1">
                    <mxGeometry x="30" width="40" height="60" as="geometry"/>
                </mxCell>
                <mxCell id="42" value="" style="shape=actor;whiteSpace=wrap;html=1;fillColor=#e1d5e7;strokeColor=#9673a6;" parent="40" vertex="1">
                    <mxGeometry width="40" height="60" as="geometry"/>
                </mxCell>
                <mxCell id="43" value="" style="shape=actor;whiteSpace=wrap;html=1;fillColor=#fff2cc;strokeColor=#d6b656;" parent="40" vertex="1">
                    <mxGeometry x="60" width="40" height="60" as="geometry"/>
                </mxCell>
                <mxCell id="44" value="&amp;lt;" style="shape=curlyBracket;whiteSpace=wrap;html=1;rounded=1;flipH=1;size=0.5;rotation=90;strokeColor=#99004D;fontColor=#99004D;" parent="1" vertex="1">
                    <mxGeometry x="404" y="509.38" width="20" height="141.25" as="geometry"/>
                </mxCell>
                <mxCell id="45" value="Nivel 1" style="text;strokeColor=none;fillColor=none;html=1;fontSize=24;fontStyle=1;verticalAlign=middle;align=center;fontColor=#99004D;" parent="1" vertex="1">
                    <mxGeometry x="370" y="600" width="100" height="40" as="geometry"/>
                </mxCell>
                <mxCell id="50" value="&amp;lt;" style="shape=curlyBracket;whiteSpace=wrap;html=1;rounded=1;flipH=1;size=0.5;rotation=90;fillColor=#CC0066;strokeColor=#CC0066;" parent="1" vertex="1">
                    <mxGeometry x="604" y="509.38" width="20" height="141.25" as="geometry"/>
                </mxCell>
                <mxCell id="51" value="Nivel 2" style="text;strokeColor=none;fillColor=none;html=1;fontSize=24;fontStyle=1;verticalAlign=middle;align=center;fontColor=#CC0066;" parent="1" vertex="1">
                    <mxGeometry x="570" y="600" width="100" height="40" as="geometry"/>
                </mxCell>
                <mxCell id="52" value="&amp;lt;" style="shape=curlyBracket;whiteSpace=wrap;html=1;rounded=1;flipH=1;size=0.5;rotation=90;strokeColor=#FF66B3;" parent="1" vertex="1">
                    <mxGeometry x="805" y="509.38" width="20" height="141.25" as="geometry"/>
                </mxCell>
                <mxCell id="53" value="Nivel 3" style="text;strokeColor=none;fillColor=none;html=1;fontSize=24;fontStyle=1;verticalAlign=middle;align=center;fontColor=#FF66B3;" parent="1" vertex="1">
                    <mxGeometry x="770" y="600" width="100" height="40" as="geometry"/>
                </mxCell>
                <mxCell id="64" style="edgeStyle=none;html=1;exitX=1;exitY=0.5;exitDx=0;exitDy=0;entryX=0;entryY=0.5;entryDx=0;entryDy=0;dashed=1;" parent="1" edge="1">
                    <mxGeometry relative="1" as="geometry">
                        <mxPoint x="470" y="139.41" as="sourcePoint"/>
                        <mxPoint x="554" y="139.41" as="targetPoint"/>
                    </mxGeometry>
                </mxCell>
                <mxCell id="65" style="edgeStyle=none;html=1;exitX=1;exitY=0.5;exitDx=0;exitDy=0;entryX=0;entryY=0.5;entryDx=0;entryDy=0;dashed=1;jumpSize=7;" parent="1" edge="1">
                    <mxGeometry relative="1" as="geometry">
                        <mxPoint x="676" y="301.41" as="sourcePoint"/>
                        <mxPoint x="760" y="301.41" as="targetPoint"/>
                    </mxGeometry>
                </mxCell>
            </root>
        </mxGraphModel>
    </diagram>
</mxfile>